<svg width="16" height="16" viewBox="0 0 16 16" fill="none" xmlns="http://www.w3.org/2000/svg">
  <defs>
    <linearGradient id="bubbleGradient16" x1="0%" y1="0%" x2="100%" y2="100%">
      <stop offset="0%" style="stop-color:#10B981;stop-opacity:1" />
      <stop offset="100%" style="stop-color:#059669;stop-opacity:1" />
    </linearGradient>
    <linearGradient id="waveGradient16" x1="0%" y1="0%" x2="100%" y2="0%">
      <stop offset="0%" style="stop-color:#F59E0B;stop-opacity:1" />
      <stop offset="100%" style="stop-color:#D97706;stop-opacity:1" />
    </linearGradient>
  </defs>

  <!-- Left sound waves -->
  <path d="M1 6C1 6 2 5 2 8C2 11 1 10 1 10" stroke="url(#waveGradient16)" stroke-width="1" stroke-linecap="round" fill="none"/>
  <path d="M2.5 5C2.5 5 3.5 4 3.5 8C3.5 12 2.5 11 2.5 11" stroke="url(#waveGradient16)" stroke-width="1" stroke-linecap="round" fill="none"/>

  <!-- Speech bubble -->
  <rect x="6" y="3" width="8" height="8" rx="2" fill="url(#bubbleGradient16)" stroke="#065F46" stroke-width="1"/>
  <path d="M6 9L4 11L4 9H6Z" fill="url(#bubbleGradient16)" stroke="#065F46" stroke-width="1" stroke-linejoin="round"/>

  <!-- Right sound waves -->
  <path d="M15 6C15 6 14 5 14 8C14 11 15 10 15 10" stroke="url(#waveGradient16)" stroke-width="1" stroke-linecap="round" fill="none"/>
  <path d="M13.5 5C13.5 5 12.5 4 12.5 8C12.5 12 13.5 11 13.5 11" stroke="url(#waveGradient16)" stroke-width="1" stroke-linecap="round" fill="none"/>
</svg>
